<svg id="Layer_1" data-name="Layer 1" xmlns="http://www.w3.org/2000/svg" viewBox="0 0 941.57 172.53"><defs><style>.cls-1{fill:#f74f22;}.cls-2,.cls-4{isolation:isolate;}.cls-2{font-size:96.37px;font-family:Papyrus;}.cls-3{letter-spacing:-0.04em;}.cls-4{font-size:60.23px;font-family:BradleyHandITCTT-Bold, Bradley Hand;font-weight:700;}</style></defs><path class="cls-1" d="M131.4,71.1a4.75,4.75,0,0,1,4.9-3.7c4.6.1,12,3.6,11,14.2-.7,7.1-9.5,26.1-1.7,33.5s23.9-2,31-8.8c9.2-8.8,40.7-45.8,11-82.4a5.34,5.34,0,0,1,.1-7.1h0a7.27,7.27,0,0,1,9.9-.7c9,7.6,24.6,26.7,17.2,64.1-9.1,45.8-75.3,83-93.7,91.6a7.68,7.68,0,0,1-8.2-1.1c-6-5.3-15.9-18.2-8.6-41.6C113.9,98.4,127.5,91.2,131.4,71.1Z"/><path class="cls-1" d="M96.2,133.5a7.59,7.59,0,0,0-4.2-8.4c-3.9-2.1-8-4.4-10.5-6C72.3,113,64.1,106,58.6,99.3c-8-9.8-14.8-23-12.1-35.2a25.53,25.53,0,0,1,5.2-10.4,40.3,40.3,0,0,1,12.2-9.9V8.1C29,8.6.9,33.9.9,65.2a50.35,50.35,0,0,0,.5,6.7c1,13.4,5.7,28.5,17.9,43.6C28.7,127.2,44,139.2,60,149.8c14.6,9.7,30.7,17.9,45.6,22.6C99.2,165.7,92,153.2,96.2,133.5Z"/><path class="cls-1" d="M98.7,17.1A69.86,69.86,0,0,0,63.8,7.8C28.6,7.8,0,33.4,0,64.9a50.35,50.35,0,0,0,.5,6.7A68.75,68.75,0,0,0,8.7,98.8c-3-26.1,21.7-48.1,50.8-48.1,19.5,0,43.2,11.1,50.4,38.2a78.88,78.88,0,0,0,5.7-13C121.2,59.5,124.1,34.2,98.7,17.1Z"/><path class="cls-1" d="M183.7,27c-5.9-8.9-13.2-14.4-18.5-17-4-1.9-7.3-1.6-9.3,1.6l-.1.1c-1.5,2.3.6,5.6,2.8,7.5,11.9,10.2,17.8,21.5,22.1,33.1a2.33,2.33,0,0,1-.7,2.6,3.17,3.17,0,0,1-4.5-.2,2.18,2.18,0,0,1-.5-.8c-2.9-7.3-7.3-13.2-12.4-19.1-7.6-8.7-15.8-14.3-21.8-16.6-4-1.5-7.9-1-9.4,2.5l-.1.1c-1.2,2.6.3,5.2,2.9,6.9a90,90,0,0,1,32.1,37.8,2.87,2.87,0,0,1-.2,2.7,2.22,2.22,0,0,1-3.1-.3l-.2-.2a92.25,92.25,0,0,0-10.9-14c-7.1-7.8-10.8-9.9-17-12.7-2.6-1.2-6.2-.8-8,1.3-2.3,2.7-1.2,5.8,2.2,8.2,28.6,19.8,34.3,41.9,31.6,60.2,0-.2,1.7-1,1.9-1.1,1.7-1.1,3.4-2.2,5-3.4A73.7,73.7,0,0,0,181.3,92a60.38,60.38,0,0,0,9-15.8A52.27,52.27,0,0,0,193,57c0-.8-.1-1.7-.1-2.5A56,56,0,0,0,183.7,27Z"/><text class="cls-2" transform="translate(248.93 80.46)"><tspan class="cls-3">S</tspan><tspan x="58.96" y="0">AHAAD</tspan></text><text class="cls-4" transform="translate(244.78 148.08)">Empowerment Foundation</text></svg>