<svg id="Layer_1" data-name="Layer 1" xmlns="http://www.w3.org/2000/svg" viewBox="0 0 941.57 172.51"><defs><style>.cls-1{fill:#f74f22;}.cls-2,.cls-3,.cls-4,.cls-5{isolation:isolate;}.cls-3,.cls-4{font-size:96.37px;font-family:Papyrus;}.cls-3{letter-spacing:-0.04em;}.cls-5{font-size:60.23px;font-family:BradleyHandITCTT-Bold, Bradley Hand;font-weight:700;}</style></defs><g id="OBJECTS"><path class="cls-1" d="M131.41,71.12a4.83,4.83,0,0,1,4.93-3.69c4.65.11,12,3.57,11,14.21-.72,7.14-9.54,26.13-1.68,33.49s23.94-2,31-8.8c9.16-8.84,40.69-45.83,11-82.37a5.42,5.42,0,0,1,.14-7.14h0a7.26,7.26,0,0,1,9.86-.68c9,7.58,24.65,26.69,17.24,64.05-9.08,45.79-75.35,83-93.74,91.59a7.68,7.68,0,0,1-8.24-1.1c-6-5.29-15.88-18.17-8.56-41.6C113.87,98.38,127.53,91.24,131.41,71.12Z"/><path class="cls-1" d="M96.2,133.5a7.74,7.74,0,0,0-4.2-8.43c-3.92-2.1-8-4.4-10.49-6C72.32,113,64.07,106,58.63,99.33c-8-9.81-14.79-23-12.14-35.24a25.22,25.22,0,0,1,5.15-10.36A41.46,41.46,0,0,1,63.86,43.8V8.13C29,8.55.9,33.94.9,65.21a53.65,53.65,0,0,0,.47,6.71c1,13.42,5.73,28.49,17.94,43.62C28.73,127.23,44,139.28,60,149.87c14.63,9.7,30.65,17.87,45.61,22.64C99.18,165.72,92,153.25,96.2,133.5Z"/><path class="cls-1" d="M98.72,17.15A68.88,68.88,0,0,0,63.85,7.84C28.59,7.84,0,33.41,0,64.94a50.11,50.11,0,0,0,.48,6.71A68.49,68.49,0,0,0,8.65,98.82c-3-26.14,21.69-48.1,50.78-48.1,19.53,0,43.15,11.1,50.38,38.17a78.81,78.81,0,0,0,5.72-13C121.25,59.46,124.13,34.25,98.72,17.15Z"/><path class="cls-1" d="M183.71,27c-5.9-8.91-13.21-14.42-18.53-16.95-4-1.92-7.31-1.58-9.33,1.56l-.08.12c-1.48,2.29.64,5.64,2.81,7.5,11.86,10.17,17.83,21.53,22.14,33.1a2.41,2.41,0,0,1-.67,2.63,3.19,3.19,0,0,1-4.51-.16A3.13,3.13,0,0,1,175,54c-2.88-7.33-7.26-13.19-12.43-19.14C155,26.14,146.82,20.52,140.8,18.23c-4-1.51-7.86-1-9.43,2.54l-.06.14c-1.16,2.6.34,5.16,2.89,6.88a90,90,0,0,1,32.06,37.75,3,3,0,0,1-.21,2.69A2.16,2.16,0,0,1,163,67.9a1.88,1.88,0,0,1-.16-.23,95.16,95.16,0,0,0-10.91-14c-7.07-7.82-10.82-9.88-17-12.73-2.64-1.21-6.16-.84-8,1.34-2.3,2.67-1.16,5.8,2.25,8.15,28.65,19.75,34.28,41.86,31.57,60.17,0-.23,1.67-1,1.88-1.09a53.47,53.47,0,0,0,5-3.45,72.28,72.28,0,0,0,13.66-14.18,61.18,61.18,0,0,0,9-15.84A53.5,53.5,0,0,0,193,56.87c0-.83-.06-1.67-.11-2.5A55.85,55.85,0,0,0,183.71,27Z"/><g class="cls-2"><text class="cls-3" transform="translate(243.25 80.46)">S</text><text class="cls-4" transform="translate(302.21 80.46)">AHAAD</text></g><text class="cls-5" transform="translate(244.78 148.08)">Empowerment Foundation</text></g></svg>